# xmcd
#
# Track frame offsets:
#	180
#	14997
#	36832
#	48418
#	60791
#	83963
#	100230
#	129852
#	139560
#	155376
#	173772
#	189290
#
# Disc length: 2752 seconds
#
# Revision: 1
# Processed by: cddbd v1.5.1PL0 Copyright (c) Steve Scherf et al.
# Submitted via: audiograbber 1.80
#
DISCID=910abe0c
DTITLE=The Nights - Getting Darker Every Day
DYEAR=1900
DGENRE=
TTITLE0=I Saw Her Coming In
TTITLE1=Dream About You
TTITLE2=I Need Some
TTITLE3=The Dr. Died
TTITLE4=Darker Every Day
TTITLE5=Fear For The Night
TTITLE6=Treaded Me Bad
TTITLE7=The Neighbour
TTITLE8=Give Me Good Loving
TTITLE9=Mysterious Woman
TTITLE10=Hunting For Your Love
TTITLE11=Restless Nights
EXTD=
EXTT0=
EXTT1=
EXTT2=
EXTT3=
EXTT4=
EXTT5=
EXTT6=
EXTT7=
EXTT8=
EXTT9=
EXTT10=
EXTT11=
PLAYORDER=
